# xmcd CD database file
#
# Track frame offsets:
#	150
#	14177
#	29700
#	40110
#	46607
#	58165
#	71292
#	81745
#	93077
#	103837
#	115320
#	129040
#	139317
#	148920
#	158600
#	171020
#	182120
#	196275
#	208220
#	219242
#
# Disc length: 3090 seconds
#
# Revision: 4
# Processed by: cddbd v1.5.2PL0 Copyright (c) Steve Scherf et al.
# Submitted via: CDex 1.70beta2
#
DISCID=270c1014
DTITLE=Sons of the Pioneers  - Down Memory Trail [CD 3 of 4)
DYEAR=2002
DGENRE=Western
TTITLE0=Sons of the Pioneers - When It's Springtime In The Rockies
TTITLE1=Sons of the Pioneers - Home On The Range
TTITLE2=Sons of the Pioneers - The Red River Valley
TTITLE3=Sons of the Pioneers - Sweet Betsy From Pike
TTITLE4=Sons of the Pioneers - Be Honest With Me
TTITLE5=Sons of the Pioneers - Moonlight And Roses (Bring Memories Of You)
TTITLE6=Sons of the Pioneers - Wagon Wheels
TTITLE7=Sons of the Pioneers - Twilight On The Trail
TTITLE8=Sons of the Pioneers - When The Bloom Is On The Sage
TTITLE9=Sons of the Pioneers - Along The Santa Fe Trail
TTITLE10=Sons of the Pioneers - Pecos Bill (With Roy Rogers)
TTITLE11=Sons of the Pioneers - Jesse James
TTITLE12=Sons of the Pioneers - Whoopee-Ti-Yi-Yo (Git Along Little Dogies)
TTITLE13=Sons of the Pioneers - Along The Navajo Trail
TTITLE14=Sons of the Pioneers - The Strawberry Roan
TTITLE15=Sons of the Pioneers - Ragtime Cowboy Joe
TTITLE16=Sons of the Pioneers - Carry Me Back To The Lone Prairie
TTITLE17=Sons of the Pioneers - Cimarron (Roll On)
TTITLE18=Sons of the Pioneers - I Love You Truly
TTITLE19=Sons of the Pioneers - No One To Cry To
EXTD=SSFLM00883-3\nXCD4-5783
EXTT0=
EXTT1=
EXTT2=
EXTT3=
EXTT4=
EXTT5=
EXTT6=
EXTT7=
EXTT8=
EXTT9=
EXTT10=
EXTT11=
EXTT12=
EXTT13=
EXTT14=
EXTT15=
EXTT16=
EXTT17=
EXTT18=
EXTT19=
PLAYORDER=
